<svg width="74" height="74" viewBox="0 0 74 74" fill="none" xmlns="http://www.w3.org/2000/svg">
<path d="M41.4365 61.0498H31.1378C29.3807 61.0498 27.9571 59.5361 27.9571 57.6678C27.9571 55.7995 29.3807 54.2859 31.1378 54.2859H43.2017C43.6654 54.2859 44.0396 53.888 44.0396 53.395C44.0396 52.902 43.6654 52.5041 43.2017 52.5041H29.7142C29.0797 52.5041 28.5672 51.9592 28.5672 51.2845V50.9558C28.5672 46.8992 27.3958 43.0501 25.2726 40.118C22.9867 36.9695 21.9211 33.034 22.2627 29.0379C22.9054 21.6685 28.3964 15.7176 35.311 14.8959C39.5248 14.4029 43.7386 15.8214 46.8705 18.8055C50.0024 21.7896 51.8002 26.0625 51.8002 30.5343C51.8002 33.9076 50.8077 37.1252 48.9367 39.8325C47.7003 41.6143 46.7973 43.5691 46.236 45.6363C46.057 46.2851 45.4306 46.657 44.8205 46.4667C44.2104 46.2764 43.8606 45.6104 44.0396 44.9617C44.6741 42.6177 45.6991 40.412 47.0983 38.3967C48.6846 36.1046 49.5143 33.3886 49.5143 30.5343C49.5143 26.7544 47.9931 23.1389 45.3412 20.6133C42.6567 18.053 39.175 16.8853 35.5631 17.3091C29.7224 18.0098 25.0855 23.0351 24.5486 29.2714C24.2558 32.6534 25.1587 35.9835 27.0867 38.6475C29.3644 41.7873 30.6823 45.8093 30.845 50.0736H43.2017C44.9263 50.0736 46.3255 51.5613 46.3255 53.395C46.3255 55.2287 44.9263 56.7164 43.2017 56.7164H31.1378C30.6416 56.7164 30.243 57.1402 30.243 57.6678C30.243 58.1955 30.6416 58.6193 31.1378 58.6193H41.4365C42.071 58.6193 42.5835 59.1642 42.5835 59.8389C42.5835 60.5135 42.0628 61.0498 41.4365 61.0498Z" fill="#605AB8"/>
<path d="M43.9214 29.8617C43.391 29.438 42.6172 29.5372 42.2085 30.0961L37.0001 37.1101L31.7917 30.0961C31.3743 29.5372 30.6092 29.438 30.0788 29.8617C29.5397 30.2855 29.444 31.0878 29.8527 31.6378L35.7741 39.6074V46.8287C35.7741 47.5319 36.3219 48.0999 37.0001 48.0999C37.6783 48.0999 38.2261 47.5319 38.2261 46.8287V39.6074L44.1475 31.6378C44.5562 31.0878 44.4605 30.2945 43.9214 29.8617Z" fill="#C8C4FF"/>
</svg>
